<?xml version="1.0" encoding="UTF-8" standalone="no"?>
<!DOCTYPE svg PUBLIC "-//W3C//DTD SVG 1.1//EN"
 "http://www.w3.org/Graphics/SVG/1.1/DTD/svg11.dtd">
<!-- Generated by graphviz version 2.40.1 (20161225.0304)
 -->
<!-- Title: Tree Pages: 1 -->
<svg width="601pt" height="300pt"
 viewBox="0.00 0.00 600.52 300.00" xmlns="http://www.w3.org/2000/svg" xmlns:xlink="http://www.w3.org/1999/xlink">
<g id="graph0" class="graph" transform="scale(1 1) rotate(0) translate(4 296)">
<title>Tree</title>
<polygon fill="#ffffff" stroke="transparent" points="-4,4 -4,-296 596.521,-296 596.521,4 -4,4"/>
<!-- 0 -->
<g id="node1" class="node">
<title>0</title>
<polygon fill="#e5823b" stroke="#000000" points="457.7738,-292 143.7633,-292 143.7633,-214 457.7738,-214 457.7738,-292"/>
<text text-anchor="middle" x="300.7686" y="-276.8" font-family="Times,serif" font-size="14.00" fill="#000000">TERMINAL_ID_RISK_7DAY_WINDOW &lt;= 0.551</text>
<text text-anchor="middle" x="300.7686" y="-262.8" font-family="Times,serif" font-size="14.00" fill="#000000">gini = 0.018</text>
<text text-anchor="middle" x="300.7686" y="-248.8" font-family="Times,serif" font-size="14.00" fill="#000000">samples = 67240</text>
<text text-anchor="middle" x="300.7686" y="-234.8" font-family="Times,serif" font-size="14.00" fill="#000000">value = [66642, 598]</text>
<text text-anchor="middle" x="300.7686" y="-220.8" font-family="Times,serif" font-size="14.00" fill="#000000">class = y[0]</text>
</g>
<!-- 1 -->
<g id="node2" class="node">
<title>1</title>
<polygon fill="#e5823a" stroke="#000000" points="252.9171,-178 88.6201,-178 88.6201,-100 252.9171,-100 252.9171,-178"/>
<text text-anchor="middle" x="170.7686" y="-162.8" font-family="Times,serif" font-size="14.00" fill="#000000">TX_AMOUNT &lt;= 218.67</text>
<text text-anchor="middle" x="170.7686" y="-148.8" font-family="Times,serif" font-size="14.00" fill="#000000">gini = 0.011</text>
<text text-anchor="middle" x="170.7686" y="-134.8" font-family="Times,serif" font-size="14.00" fill="#000000">samples = 66863</text>
<text text-anchor="middle" x="170.7686" y="-120.8" font-family="Times,serif" font-size="14.00" fill="#000000">value = [66500, 363]</text>
<text text-anchor="middle" x="170.7686" y="-106.8" font-family="Times,serif" font-size="14.00" fill="#000000">class = y[0]</text>
</g>
<!-- 0&#45;&gt;1 -->
<g id="edge1" class="edge">
<title>0&#45;&gt;1</title>
<path fill="none" stroke="#000000" d="M256.0299,-213.7677C245.5099,-204.5424 234.2032,-194.6273 223.3732,-185.1302"/>
<polygon fill="#000000" stroke="#000000" points="225.4159,-182.2664 215.5896,-178.3046 220.8006,-187.5294 225.4159,-182.2664"/>
<text text-anchor="middle" x="217.2255" y="-199.0511" font-family="Times,serif" font-size="14.00" fill="#000000">True</text>
</g>
<!-- 4 -->
<g id="node5" class="node">
<title>4</title>
<polygon fill="#b1d8f5" stroke="#000000" points="592.2738,-178 271.2633,-178 271.2633,-100 592.2738,-100 592.2738,-178"/>
<text text-anchor="middle" x="431.7686" y="-162.8" font-family="Times,serif" font-size="14.00" fill="#000000">TERMINAL_ID_RISK_30DAY_WINDOW &lt;= 0.662</text>
<text text-anchor="middle" x="431.7686" y="-148.8" font-family="Times,serif" font-size="14.00" fill="#000000">gini = 0.47</text>
<text text-anchor="middle" x="431.7686" y="-134.8" font-family="Times,serif" font-size="14.00" fill="#000000">samples = 377</text>
<text text-anchor="middle" x="431.7686" y="-120.8" font-family="Times,serif" font-size="14.00" fill="#000000">value = [142, 235]</text>
<text text-anchor="middle" x="431.7686" y="-106.8" font-family="Times,serif" font-size="14.00" fill="#000000">class = y[1]</text>
</g>
<!-- 0&#45;&gt;4 -->
<g id="edge4" class="edge">
<title>0&#45;&gt;4</title>
<path fill="none" stroke="#000000" d="M345.8513,-213.7677C356.4522,-204.5424 367.846,-194.6273 378.7592,-185.1302"/>
<polygon fill="#000000" stroke="#000000" points="381.3567,-187.5096 386.6027,-178.3046 376.7615,-182.2291 381.3567,-187.5096"/>
<text text-anchor="middle" x="384.8722" y="-199.0447" font-family="Times,serif" font-size="14.00" fill="#000000">False</text>
</g>
<!-- 2 -->
<g id="node3" class="node">
<title>2</title>
<polygon fill="#e5813a" stroke="#000000" points="133.3065,-64 .2306,-64 .2306,0 133.3065,0 133.3065,-64"/>
<text text-anchor="middle" x="66.7686" y="-48.8" font-family="Times,serif" font-size="14.00" fill="#000000">gini = 0.007</text>
<text text-anchor="middle" x="66.7686" y="-34.8" font-family="Times,serif" font-size="14.00" fill="#000000">samples = 66734</text>
<text text-anchor="middle" x="66.7686" y="-20.8" font-family="Times,serif" font-size="14.00" fill="#000000">value = [66498, 236]</text>
<text text-anchor="middle" x="66.7686" y="-6.8" font-family="Times,serif" font-size="14.00" fill="#000000">class = y[0]</text>
</g>
<!-- 1&#45;&gt;2 -->
<g id="edge2" class="edge">
<title>1&#45;&gt;2</title>
<path fill="none" stroke="#000000" d="M132.6333,-99.7647C123.6676,-90.5404 114.1087,-80.7057 105.133,-71.4711"/>
<polygon fill="#000000" stroke="#000000" points="107.5618,-68.9483 98.0822,-64.2169 102.5422,-73.8272 107.5618,-68.9483"/>
</g>
<!-- 3 -->
<g id="node4" class="node">
<title>3</title>
<polygon fill="#3c9fe5" stroke="#000000" points="257.3067,-64 152.2304,-64 152.2304,0 257.3067,0 257.3067,-64"/>
<text text-anchor="middle" x="204.7686" y="-48.8" font-family="Times,serif" font-size="14.00" fill="#000000">gini = 0.031</text>
<text text-anchor="middle" x="204.7686" y="-34.8" font-family="Times,serif" font-size="14.00" fill="#000000">samples = 129</text>
<text text-anchor="middle" x="204.7686" y="-20.8" font-family="Times,serif" font-size="14.00" fill="#000000">value = [2, 127]</text>
<text text-anchor="middle" x="204.7686" y="-6.8" font-family="Times,serif" font-size="14.00" fill="#000000">class = y[1]</text>
</g>
<!-- 1&#45;&gt;3 -->
<g id="edge3" class="edge">
<title>1&#45;&gt;3</title>
<path fill="none" stroke="#000000" d="M183.2358,-99.7647C185.9057,-91.3624 188.7366,-82.4536 191.4376,-73.9532"/>
<polygon fill="#000000" stroke="#000000" points="194.8386,-74.8073 194.5314,-64.2169 188.1673,-72.6874 194.8386,-74.8073"/>
</g>
<!-- 5 -->
<g id="node6" class="node">
<title>5</title>
<polygon fill="#43a2e6" stroke="#000000" points="454.793,-64 342.7441,-64 342.7441,0 454.793,0 454.793,-64"/>
<text text-anchor="middle" x="398.7686" y="-48.8" font-family="Times,serif" font-size="14.00" fill="#000000">gini = 0.09</text>
<text text-anchor="middle" x="398.7686" y="-34.8" font-family="Times,serif" font-size="14.00" fill="#000000">samples = 233</text>
<text text-anchor="middle" x="398.7686" y="-20.8" font-family="Times,serif" font-size="14.00" fill="#000000">value = [11, 222]</text>
<text text-anchor="middle" x="398.7686" y="-6.8" font-family="Times,serif" font-size="14.00" fill="#000000">class = y[1]</text>
</g>
<!-- 4&#45;&gt;5 -->
<g id="edge5" class="edge">
<title>4&#45;&gt;5</title>
<path fill="none" stroke="#000000" d="M419.668,-99.7647C417.0766,-91.3624 414.329,-82.4536 411.7074,-73.9532"/>
<polygon fill="#000000" stroke="#000000" points="414.9964,-72.7412 408.7046,-64.2169 408.3073,-74.8043 414.9964,-72.7412"/>
</g>
<!-- 6 -->
<g id="node7" class="node">
<title>6</title>
<polygon fill="#e88e4d" stroke="#000000" points="584.8066,-64 472.7305,-64 472.7305,0 584.8066,0 584.8066,-64"/>
<text text-anchor="middle" x="528.7686" y="-48.8" font-family="Times,serif" font-size="14.00" fill="#000000">gini = 0.164</text>
<text text-anchor="middle" x="528.7686" y="-34.8" font-family="Times,serif" font-size="14.00" fill="#000000">samples = 144</text>
<text text-anchor="middle" x="528.7686" y="-20.8" font-family="Times,serif" font-size="14.00" fill="#000000">value = [131, 13]</text>
<text text-anchor="middle" x="528.7686" y="-6.8" font-family="Times,serif" font-size="14.00" fill="#000000">class = y[0]</text>
</g>
<!-- 4&#45;&gt;6 -->
<g id="edge6" class="edge">
<title>4&#45;&gt;6</title>
<path fill="none" stroke="#000000" d="M467.337,-99.7647C475.6164,-90.6317 484.4383,-80.9004 492.7375,-71.7456"/>
<polygon fill="#000000" stroke="#000000" points="495.4393,-73.9764 499.5626,-64.2169 490.2531,-69.2749 495.4393,-73.9764"/>
</g>
</g>
</svg>
