<?xml version="1.0" encoding="UTF-8" standalone="no"?>
<!DOCTYPE svg PUBLIC "-//W3C//DTD SVG 1.1//EN"
 "http://www.w3.org/Graphics/SVG/1.1/DTD/svg11.dtd">
<!-- Generated by graphviz version 2.50.0 (20211204.2007)
 -->
<!-- Title: Tree Pages: 1 -->
<svg width="613pt" height="314pt"
 viewBox="0.00 0.00 612.50 314.00" xmlns="http://www.w3.org/2000/svg" xmlns:xlink="http://www.w3.org/1999/xlink">
<g id="graph0" class="graph" transform="scale(1 1) rotate(0) translate(4 310)">
<title>Tree</title>
<polygon fill="white" stroke="transparent" points="-4,4 -4,-310 608.5,-310 608.5,4 -4,4"/>
<!-- 0 -->
<g id="node1" class="node">
<title>0</title>
<polygon fill="#e5823b" stroke="black" points="468.5,-306 153.5,-306 153.5,-223 468.5,-223 468.5,-306"/>
<text text-anchor="middle" x="311" y="-290.8" font-family="Helvetica,sans-Serif" font-size="14.00">TERMINAL_ID_RISK_7DAY_WINDOW &lt;= 0.551</text>
<text text-anchor="middle" x="311" y="-275.8" font-family="Helvetica,sans-Serif" font-size="14.00">gini = 0.018</text>
<text text-anchor="middle" x="311" y="-260.8" font-family="Helvetica,sans-Serif" font-size="14.00">samples = 67240</text>
<text text-anchor="middle" x="311" y="-245.8" font-family="Helvetica,sans-Serif" font-size="14.00">value = [66642, 598]</text>
<text text-anchor="middle" x="311" y="-230.8" font-family="Helvetica,sans-Serif" font-size="14.00">class = y[0]</text>
</g>
<!-- 1 -->
<g id="node2" class="node">
<title>1</title>
<polygon fill="#e5823a" stroke="black" points="263.5,-187 96.5,-187 96.5,-104 263.5,-104 263.5,-187"/>
<text text-anchor="middle" x="180" y="-171.8" font-family="Helvetica,sans-Serif" font-size="14.00">TX_AMOUNT &lt;= 218.67</text>
<text text-anchor="middle" x="180" y="-156.8" font-family="Helvetica,sans-Serif" font-size="14.00">gini = 0.011</text>
<text text-anchor="middle" x="180" y="-141.8" font-family="Helvetica,sans-Serif" font-size="14.00">samples = 66863</text>
<text text-anchor="middle" x="180" y="-126.8" font-family="Helvetica,sans-Serif" font-size="14.00">value = [66500, 363]</text>
<text text-anchor="middle" x="180" y="-111.8" font-family="Helvetica,sans-Serif" font-size="14.00">class = y[0]</text>
</g>
<!-- 0&#45;&gt;1 -->
<g id="edge1" class="edge">
<title>0&#45;&gt;1</title>
<path fill="none" stroke="black" d="M265.55,-222.91C255.08,-213.56 243.86,-203.54 233.1,-193.93"/>
<polygon fill="black" stroke="black" points="235.16,-191.07 225.37,-187.02 230.5,-196.29 235.16,-191.07"/>
<text text-anchor="middle" x="226.78" y="-208.28" font-family="Helvetica,sans-Serif" font-size="14.00">True</text>
</g>
<!-- 4 -->
<g id="node5" class="node">
<title>4</title>
<polygon fill="#b1d8f5" stroke="black" points="604.5,-187 281.5,-187 281.5,-104 604.5,-104 604.5,-187"/>
<text text-anchor="middle" x="443" y="-171.8" font-family="Helvetica,sans-Serif" font-size="14.00">TERMINAL_ID_RISK_30DAY_WINDOW &lt;= 0.662</text>
<text text-anchor="middle" x="443" y="-156.8" font-family="Helvetica,sans-Serif" font-size="14.00">gini = 0.47</text>
<text text-anchor="middle" x="443" y="-141.8" font-family="Helvetica,sans-Serif" font-size="14.00">samples = 377</text>
<text text-anchor="middle" x="443" y="-126.8" font-family="Helvetica,sans-Serif" font-size="14.00">value = [142, 235]</text>
<text text-anchor="middle" x="443" y="-111.8" font-family="Helvetica,sans-Serif" font-size="14.00">class = y[1]</text>
</g>
<!-- 0&#45;&gt;4 -->
<g id="edge4" class="edge">
<title>0&#45;&gt;4</title>
<path fill="none" stroke="black" d="M356.8,-222.91C367.34,-213.56 378.65,-203.54 389.49,-193.93"/>
<polygon fill="black" stroke="black" points="392.12,-196.27 397.28,-187.02 387.48,-191.03 392.12,-196.27"/>
<text text-anchor="middle" x="395.78" y="-208.28" font-family="Helvetica,sans-Serif" font-size="14.00">False</text>
</g>
<!-- 2 -->
<g id="node3" class="node">
<title>2</title>
<polygon fill="#e5813a" stroke="black" points="140,-68 0,-68 0,0 140,0 140,-68"/>
<text text-anchor="middle" x="70" y="-52.8" font-family="Helvetica,sans-Serif" font-size="14.00">gini = 0.007</text>
<text text-anchor="middle" x="70" y="-37.8" font-family="Helvetica,sans-Serif" font-size="14.00">samples = 66734</text>
<text text-anchor="middle" x="70" y="-22.8" font-family="Helvetica,sans-Serif" font-size="14.00">value = [66498, 236]</text>
<text text-anchor="middle" x="70" y="-7.8" font-family="Helvetica,sans-Serif" font-size="14.00">class = y[0]</text>
</g>
<!-- 1&#45;&gt;2 -->
<g id="edge2" class="edge">
<title>1&#45;&gt;2</title>
<path fill="none" stroke="black" d="M139.04,-103.73C129.79,-94.51 119.96,-84.74 110.72,-75.53"/>
<polygon fill="black" stroke="black" points="113.01,-72.87 103.45,-68.3 108.07,-77.84 113.01,-72.87"/>
</g>
<!-- 3 -->
<g id="node4" class="node">
<title>3</title>
<polygon fill="#3c9fe5" stroke="black" points="268,-68 158,-68 158,0 268,0 268,-68"/>
<text text-anchor="middle" x="213" y="-52.8" font-family="Helvetica,sans-Serif" font-size="14.00">gini = 0.031</text>
<text text-anchor="middle" x="213" y="-37.8" font-family="Helvetica,sans-Serif" font-size="14.00">samples = 129</text>
<text text-anchor="middle" x="213" y="-22.8" font-family="Helvetica,sans-Serif" font-size="14.00">value = [2, 127]</text>
<text text-anchor="middle" x="213" y="-7.8" font-family="Helvetica,sans-Serif" font-size="14.00">class = y[1]</text>
</g>
<!-- 1&#45;&gt;3 -->
<g id="edge3" class="edge">
<title>1&#45;&gt;3</title>
<path fill="none" stroke="black" d="M192.29,-103.73C194.82,-95.34 197.49,-86.47 200.04,-78.01"/>
<polygon fill="black" stroke="black" points="203.43,-78.88 202.96,-68.3 196.73,-76.86 203.43,-78.88"/>
</g>
<!-- 5 -->
<g id="node6" class="node">
<title>5</title>
<polygon fill="#43a2e6" stroke="black" points="468.5,-68 351.5,-68 351.5,0 468.5,0 468.5,-68"/>
<text text-anchor="middle" x="410" y="-52.8" font-family="Helvetica,sans-Serif" font-size="14.00">gini = 0.09</text>
<text text-anchor="middle" x="410" y="-37.8" font-family="Helvetica,sans-Serif" font-size="14.00">samples = 233</text>
<text text-anchor="middle" x="410" y="-22.8" font-family="Helvetica,sans-Serif" font-size="14.00">value = [11, 222]</text>
<text text-anchor="middle" x="410" y="-7.8" font-family="Helvetica,sans-Serif" font-size="14.00">class = y[1]</text>
</g>
<!-- 4&#45;&gt;5 -->
<g id="edge5" class="edge">
<title>4&#45;&gt;5</title>
<path fill="none" stroke="black" d="M430.71,-103.73C428.18,-95.34 425.51,-86.47 422.96,-78.01"/>
<polygon fill="black" stroke="black" points="426.27,-76.86 420.04,-68.3 419.57,-78.88 426.27,-76.86"/>
</g>
<!-- 6 -->
<g id="node7" class="node">
<title>6</title>
<polygon fill="#e88e4d" stroke="black" points="603.5,-68 486.5,-68 486.5,0 603.5,0 603.5,-68"/>
<text text-anchor="middle" x="545" y="-52.8" font-family="Helvetica,sans-Serif" font-size="14.00">gini = 0.164</text>
<text text-anchor="middle" x="545" y="-37.8" font-family="Helvetica,sans-Serif" font-size="14.00">samples = 144</text>
<text text-anchor="middle" x="545" y="-22.8" font-family="Helvetica,sans-Serif" font-size="14.00">value = [131, 13]</text>
<text text-anchor="middle" x="545" y="-7.8" font-family="Helvetica,sans-Serif" font-size="14.00">class = y[0]</text>
</g>
<!-- 4&#45;&gt;6 -->
<g id="edge6" class="edge">
<title>4&#45;&gt;6</title>
<path fill="none" stroke="black" d="M480.98,-103.73C489.48,-94.61 498.49,-84.93 506.99,-75.81"/>
<polygon fill="black" stroke="black" points="509.73,-78 513.98,-68.3 504.6,-73.23 509.73,-78"/>
</g>
</g>
</svg>
